<?xml version="1.0" encoding="UTF-8" standalone="no"?>
<!-- Created with Inkscape (http://www.inkscape.org/) -->

<svg
   width="293mm"
   height="81mm"
   version="1.1"
   viewBox="0 0 293 81"
   id="svg18"
   sodipodi:docname="Logo_Lanti_Plain.svg"
   inkscape:version="1.1.1 (3bf5ae0d25, 2021-09-20)"
   xmlns:inkscape="http://www.inkscape.org/namespaces/inkscape"
   xmlns:sodipodi="http://sodipodi.sourceforge.net/DTD/sodipodi-0.dtd"
   xmlns="http://www.w3.org/2000/svg"
   xmlns:svg="http://www.w3.org/2000/svg">
  <sodipodi:namedview
     id="namedview12"
     pagecolor="#ffffff"
     bordercolor="#999999"
     borderopacity="1"
     inkscape:pageshadow="0"
     inkscape:pageopacity="0"
     inkscape:pagecheckerboard="0"
     inkscape:document-units="mm"
     showgrid="false"
     units="mm"
     inkscape:zoom="0.74653479"
     inkscape:cx="437.35403"
     inkscape:cy="111.85011"
     inkscape:window-width="1920"
     inkscape:window-height="1001"
     inkscape:window-x="-9"
     inkscape:window-y="-9"
     inkscape:window-maximized="1"
     inkscape:current-layer="svg18" />
  <defs
     id="defs22" />
  <path
     d="M 273.7948,16.126046 290.54173,0.36068376 273.79768,0.39316446 Z"
     fill="#f7f747"
     stroke-width="0"
     id="path2" />
  <g
     transform="matrix(4.5111643,0,0,4.5111643,-343.45434,-109.41337)"
     fill="#3254b5"
     stroke-width="0"
     id="g14">
    <path
       d="m 96.684,27.856 c -2.6173,0.0121 -5.1955,1.077 -5.5697,1.2991 l 0.8139,1.4092 c 0.95348,-0.46266 1.9571,-0.7755 2.8996,-0.93276 0.45554,-0.07602 0.89684,-0.116 1.3115,-0.11886 0.1885,-0.0013 0.37129,0.005 0.54777,0.01912 0.52657,0.04203 0.99486,0.15299 1.3741,0.34055 0.11302,-0.116 0.27071,-0.1881 0.44442,-0.1881 0.34154,0 0.62115,0.27961 0.62115,0.62115 0,0.34154 -0.27961,0.62115 -0.62115,0.62115 -0.34154,0 -0.62115,-0.27961 -0.62115,-0.62115 0,-0.07231 0.01266,-0.14202 0.03565,-0.20671 -0.70333,-0.33631 -1.8179,-0.41117 -3.0494,-0.20567 -0.91078,0.15198 -1.8848,0.45502 -2.8096,0.90124 l 0.67334,1.1663 c 6.3844,-1.8943 6.0451,1.8681 6.0451,1.8681 -14.593,-2.8972 -8.4523,13.674 0.03101,6.4844 v 1.8412 h 3.6794 v -9.2826 c -0.53204,-3.9873 -3.1886,-5.0278 -5.8058,-5.0157 z m 1.8025,2.0784 c -0.19733,0.0099 -0.35192,0.17106 -0.35192,0.37104 0,0.20643 0.1646,0.37104 0.37104,0.37104 0.20644,0 0.37104,-0.16461 0.37104,-0.37104 0,-0.20643 -0.16461,-0.37104 -0.37104,-0.37104 -0.0065,0 -0.01275,-3.18e-4 -0.01912,0 z m -1.9032,6.0642 c 0.59756,-0.0029 1.312,0.07086 2.1565,0.24546 0.02215,0.99679 -0.14022,2.8945 -2.6691,2.9797 -2.3137,0.08845 -3.3891,-3.2059 0.51263,-3.2251 z"
       id="path4" />
    <path
       d="m 77.024,24.463 v 3.3073 l -0.68626,0.68626 v 11.744 h 6.0983 c 0.05872,-0.2752 0.30086,-0.48453 0.59118,-0.49196 0.0053,-1.35e-4 0.01068,0 0.01602,0 0.34154,0 0.62115,0.27961 0.62115,0.62115 0,0.34154 -0.27961,0.62063 -0.62115,0.62063 -0.29461,0 -0.54292,-0.20784 -0.60565,-0.48421 h -6.0999 v 1.6909 h 12.791 v -3.6049 h -8.6486 v -13.262 l 0.82682,-0.82682 z m 6.0193,15.495 c -0.20643,0 -0.37104,0.16512 -0.37104,0.37155 0,0.20643 0.16461,0.37104 0.37104,0.37104 0.20643,0 0.37104,-0.16461 0.37104,-0.37104 0,-0.20643 -0.16461,-0.37155 -0.37104,-0.37155 z"
       id="path6" />
    <path
       d="m 116.46,24.323 v 3.2504 l -0.56121,0.56121 v 6.642 l -7.8812,-10.384 h -3.7884 v 17.762 h 4.0866 v -10.857 l 8.261,10.798 h 1.294 v -6.0704 c -0.27631,-0.06276 -0.4842,-0.31108 -0.4842,-0.60565 0,-0.3362 0.27089,-0.6126 0.60513,-0.62115 0.005,-1.38e-4 0.0107,0 0.016,0 0.34154,0 0.62115,0.27961 0.62115,0.62115 0,0.29736 -0.21225,0.5474 -0.49248,0.6072 v 6.0689 h 1.8082 v -16.861 l 0.91209,-0.91209 z m 1.5379,10.726 c -0.20189,0.005 -0.36122,0.16783 -0.36122,0.37104 0,0.20643 0.16461,0.37104 0.37104,0.37104 0.20643,0 0.37103,-0.16461 0.37103,-0.37104 0,-0.20643 -0.1646,-0.37104 -0.37103,-0.37104 -0.003,0 -0.007,-7.9e-5 -0.01,0 z"
       id="path8" />
    <path
       d="m 124.23,24.444 -3.6556,3.6706 5.4085,5.19e-4 v 14.039 h 4.2003 v -13.99 h 5.1594 v -1.6831 h -4.2845 c -0.0627,0.27637 -0.31104,0.48421 -0.60565,0.48421 -0.34154,0 -0.62115,-0.27961 -0.62115,-0.62115 0,-0.34154 0.27961,-0.62115 0.62115,-0.62115 0.29736,0 0.5474,0.21225 0.6072,0.49248 h 4.2829 v -1.772 z m 6.2125,1.5296 c -0.20189,0.005 -0.36173,0.16783 -0.36173,0.37104 0,0.20643 0.16512,0.37104 0.37155,0.37104 0.20643,0 0.37104,-0.1646 0.37104,-0.37104 0,-0.20643 -0.16461,-0.37104 -0.37104,-0.37104 -0.003,0 -0.007,-8.2e-5 -0.01,0 z"
       id="path10" />
    <path
       d="m 140.91,24.337 -4.0974,3.8928 0.0191,13.925 h 4.0618 v -14.147 l -1.925,1.9218 v 3.8886 c 0.27635,0.06274 0.48472,0.31105 0.48472,0.60565 0,0.34154 -0.27961,0.62115 -0.62115,0.62115 -0.34154,0 -0.62115,-0.27961 -0.62115,-0.62115 0,-0.29725 0.21189,-0.5478 0.49196,-0.60772 v -3.9961 l 2.1906,-2.1849 z m -2.0877,9.7157 c -0.20189,0.005 -0.36122,0.16783 -0.36122,0.37104 0,0.20643 0.1646,0.37104 0.37103,0.37104 0.20644,0 0.37104,-0.16461 0.37104,-0.37104 0,-0.20643 -0.1646,-0.37104 -0.37104,-0.37104 -0.003,0 -0.007,-7.9e-5 -0.01,0 z"
       id="path12" />
  </g>
  <g
     transform="rotate(180,57.606,101.25)"
     id="g16" />
</svg>
