<?xml version="1.0" encoding="UTF-8" standalone="no" ?>
<!DOCTYPE svg PUBLIC "-//W3C//DTD SVG 1.1//EN" "http://www.w3.org/Graphics/SVG/1.1/DTD/svg11.dtd">
<svg xmlns="http://www.w3.org/2000/svg" xmlns:xlink="http://www.w3.org/1999/xlink" version="1.1" width="400" height="156.4" viewBox="0 0 400 156.4" xml:space="preserve">
<desc>Created with Fabric.js 3.6.6</desc>
<defs>
</defs>
<g transform="matrix(1 0 0 1 185.63 68.73)"  >
<g style=""   >
		<g transform="matrix(1 0 0 1 74.13 49.59)" style=""  >
		<text xml:space="preserve" font-family="'Open Sans', sans-serif" font-size="33" font-style="normal" font-weight="normal" style="stroke: none; stroke-width: 1; stroke-dasharray: none; stroke-linecap: butt; stroke-dashoffset: 0; stroke-linejoin: miter; stroke-miterlimit: 4; fill: rgb(4,162,194); fill-rule: nonzero; opacity: 1; white-space: pre;" ><tspan x="-111" y="10.37" style="font-weight: bold; fill: rgb(50,183,209); ">Repositorio</tspan></text>
</g>
		<g transform="matrix(1 0 0 1 -105.55 11.29)"  >
<path style="stroke: none; stroke-width: 1; stroke-dasharray: none; stroke-linecap: butt; stroke-dashoffset: 0; stroke-linejoin: miter; stroke-miterlimit: 4; fill: rgb(4,220,172); fill-rule: evenodd; opacity: 1;"  transform=" translate(-94.81, -97.04)" d="M 87.261 54.149 C 87.21 54.231 87.187 57.4 87.209 61.191 L 87.25 68.083 L 100.5 68.185 C 115.702 68.302 114.068 68.248 115.667 68.687 C 125.427 71.369 126.042 84.78 116.583 88.698 L 115.25 89.25 L 101.427 89.297 C 91.767 89.33 87.538 89.399 87.385 89.526 C 87.208 89.673 87.166 92.259 87.165 103.145 C 87.163 117.763 87.198 117.168 86.195 119.37 C 85.279 121.382 83.528 123.302 81.811 124.178 C 80.806 124.691 79.351 125.197 79.183 125.093 C 79.098 125.041 79 125.085 78.964 125.191 C 78.826 125.604 74.677 125.49 73.5 125.041 C 73.362 124.988 73.212 124.933 73.167 124.917 C 73.121 124.901 72.872 124.801 72.614 124.694 C 72.356 124.587 72.103 124.5 72.051 124.5 C 71.999 124.5 71.498 124.191 70.937 123.813 C 67.56 121.54 66.229 118.833 66.027 113.836 L 65.917 111.088 L 65.25 110.965 C 64.883 110.897 61.716 110.851 58.211 110.862 L 51.839 110.883 L 51.732 111.452 C 51.55 112.426 51.78 117.836 52.072 119.417 C 54.918 134.842 71.286 144.095 85.667 138.41 C 89.722 136.807 93.037 134.335 96.502 130.333 C 98.797 127.682 101.011 122.383 101.411 118.583 C 101.469 118.033 101.583 116.983 101.664 116.25 C 101.746 115.517 101.817 112.468 101.823 109.476 C 101.832 104.675 101.864 104.024 102.097 103.934 C 102.242 103.879 105.237 103.833 108.753 103.833 C 117.036 103.833 119.166 103.504 123.267 101.587 C 129.757 98.553 135.172 92.295 136.897 85.833 C 137.056 85.237 137.23 84.637 137.285 84.5 C 137.517 83.914 137.78 82.15 137.918 80.25 C 138.202 76.364 136.96 70.61 135.143 67.385 C 131.175 60.345 124.405 55.437 117 54.232 C 115.342 53.962 87.425 53.884 87.261 54.149" stroke-linecap="round" />
</g>
		<g transform="matrix(1 0 0 1 -3.11 -19.72)"  >
<path style="stroke: none; stroke-width: 1; stroke-dasharray: none; stroke-linecap: butt; stroke-dashoffset: 0; stroke-linejoin: miter; stroke-miterlimit: 4; fill: rgb(4,162,194); fill-rule: evenodd; opacity: 1;"  transform=" translate(-197.26, -66.04)" d="M 73.917 17.838 C 70.925 18.285 69.528 18.556 69.05 18.78 C 68.757 18.917 68.426 18.974 68.316 18.906 C 68.196 18.832 68.159 18.852 68.223 18.956 C 68.284 19.055 68.132 19.18 67.874 19.244 C 67.417 19.356 64.862 20.571 63.917 21.126 C 60.854 22.923 57.605 26.025 55.756 28.917 C 55.404 29.467 54.94 30.183 54.725 30.509 C 54.509 30.835 54.333 31.158 54.333 31.227 C 54.333 31.296 54.108 31.806 53.833 32.361 C 53.557 32.916 53.211 33.793 53.062 34.31 C 52.914 34.827 52.738 35.325 52.671 35.417 C 52.605 35.508 52.464 36.033 52.359 36.583 C 52.255 37.133 52.08 38.033 51.971 38.583 C 51.845 39.225 51.753 42.121 51.714 46.667 L 51.655 53.75 L 44.619 53.853 C 37.63 53.955 34.147 54.254 33.43 54.813 C 33.331 54.89 32.712 55.115 32.055 55.311 C 30.784 55.691 27.967 57.082 26.583 58.013 C 25.548 58.709 24.278 59.666 24.167 59.832 C 24.121 59.901 23.7 60.286 23.232 60.687 C 22.4 61.399 20.73 63.273 20.077 64.227 C 18.816 66.067 17.557 68.373 17.162 69.564 C 16.983 70.104 16.77 70.629 16.689 70.731 C 16.607 70.833 16.403 71.517 16.235 72.25 C 16.068 72.983 15.874 73.623 15.806 73.672 C 15.738 73.72 15.68 73.908 15.678 74.088 C 15.676 74.269 15.603 74.829 15.516 75.333 C 15.297 76.602 15.297 81.038 15.516 82.25 C 15.616 82.8 15.694 83.398 15.69 83.578 C 15.685 83.759 15.738 83.946 15.806 83.995 C 15.874 84.044 16.068 84.683 16.235 85.417 C 16.403 86.15 16.596 86.825 16.665 86.917 C 16.733 87.008 16.952 87.533 17.151 88.083 C 17.698 89.594 18.458 90.975 20.232 93.682 C 20.843 94.614 24.686 98.456 25.65 99.098 C 27.417 100.276 27.816 100.519 28.917 101.087 C 29.558 101.419 30.496 101.845 31 102.034 C 31.504 102.223 31.992 102.434 32.083 102.504 C 32.175 102.573 32.813 102.758 33.5 102.914 C 34.188 103.071 35.087 103.321 35.5 103.471 C 36.169 103.714 37.857 103.749 51.116 103.795 L 65.982 103.847 L 66.084 103.298 C 66.233 102.499 66.108 89.788 65.948 89.542 C 65.843 89.378 62.989 89.333 52.615 89.331 C 38.944 89.33 38.167 89.304 38.167 88.862 C 38.167 88.679 38.114 88.653 37.992 88.775 C 37.869 88.897 37.505 88.84 36.783 88.586 C 35.579 88.161 34.616 87.606 34.787 87.435 C 34.853 87.369 34.771 87.368 34.605 87.431 C 34.088 87.63 31.111 84.179 31.111 83.381 C 31.111 83.263 31.052 83.167 30.979 83.167 C 30.816 83.167 30.333 81.585 30.333 81.053 C 30.333 80.841 30.258 80.667 30.167 80.667 C 29.927 80.667 29.961 80.21 30.208 80.11 C 30.368 80.045 30.361 79.987 30.181 79.861 C 29.87 79.644 29.87 78.275 30.181 77.898 C 30.363 77.677 30.369 77.597 30.208 77.542 C 29.961 77.459 29.926 77 30.167 77 C 30.258 77 30.333 76.849 30.333 76.665 C 30.333 76.213 30.963 73.963 31.123 73.845 C 31.193 73.793 31.54 73.32 31.893 72.794 C 32.952 71.223 35.181 69.45 35.697 69.769 C 35.805 69.835 35.839 69.81 35.777 69.711 C 35.656 69.514 36.419 69.117 37.417 68.856 C 39.264 68.373 40.722 68.323 52.972 68.322 C 60.447 68.322 65.685 68.259 65.833 68.167 C 66.051 68.032 66.095 66.25 66.176 54.381 C 66.258 42.168 66.297 40.648 66.554 39.771 C 67.508 36.505 70.669 33.44 73.824 32.722 C 74.425 32.585 75.044 32.406 75.201 32.323 C 75.375 32.231 75.524 32.237 75.585 32.337 C 75.718 32.552 77.101 32.547 77.507 32.33 C 77.719 32.216 77.925 32.214 78.121 32.324 C 78.284 32.415 78.849 32.572 79.377 32.673 C 79.906 32.775 80.295 32.927 80.244 33.01 C 80.192 33.094 80.262 33.12 80.399 33.067 C 80.656 32.968 82.128 33.745 82.028 33.927 C 81.997 33.982 82.028 34.078 82.096 34.139 C 82.164 34.2 82.166 34.156 82.1 34.042 C 81.829 33.571 82.393 33.892 83.481 34.828 C 84.782 35.948 85.412 36.738 85.235 37.025 C 85.165 37.138 85.188 37.173 85.289 37.111 C 85.385 37.051 85.592 37.198 85.748 37.437 C 86.181 38.098 86.869 40.238 86.67 40.304 C 86.577 40.336 86.5 40.428 86.5 40.509 C 86.5 40.59 86.602 40.617 86.726 40.569 C 87.041 40.449 87.167 41.525 87.167 44.347 C 87.167 45.73 87.234 46.689 87.337 46.752 C 87.828 47.056 101.378 46.892 101.607 46.579 C 102.364 45.544 101.478 37.698 100.215 34.25 C 98.154 28.622 93.578 23.281 88.616 20.709 C 87.865 20.319 87.139 19.907 87.004 19.792 C 86.869 19.677 86.737 19.603 86.712 19.627 C 86.686 19.651 86.394 19.557 86.062 19.419 C 85.731 19.28 85.375 19.164 85.271 19.161 C 85.168 19.158 84.783 19.01 84.417 18.833 C 84.05 18.656 83.577 18.509 83.365 18.506 C 83.154 18.503 83.014 18.444 83.056 18.375 C 83.098 18.306 82.749 18.231 82.282 18.207 C 81.814 18.184 81.363 18.096 81.279 18.012 C 81.195 17.928 81.023 17.899 80.896 17.948 C 80.77 17.996 80.535 17.983 80.375 17.919 C 79.914 17.734 75.022 17.673 73.917 17.838 M 244.869 42.335 C 243.282 42.5 241.66 42.811 241.417 42.996 C 241.325 43.066 240.95 43.219 240.583 43.337 C 239.785 43.592 237.937 44.554 237.277 45.056 C 236.346 45.765 235.412 46.541 235.128 46.841 C 234.482 47.524 233.333 49.006 233.333 49.156 C 233.333 49.244 233.233 49.377 233.111 49.45 C 232.989 49.523 232.711 49.958 232.493 50.417 C 232.275 50.875 232.012 51.362 231.909 51.5 C 231.805 51.637 231.585 52.2 231.421 52.75 C 231.256 53.3 231.051 53.838 230.967 53.946 C 230.781 54.183 230.167 57.501 230.167 58.268 C 230.167 58.568 230.089 58.862 229.994 58.921 C 229.777 59.055 229.796 64.624 230.014 64.759 C 230.098 64.811 230.167 65.173 230.167 65.564 C 230.167 66.506 230.644 69.287 230.913 69.917 C 231.031 70.192 231.296 70.904 231.502 71.5 C 231.709 72.096 231.929 72.621 231.992 72.667 C 232.055 72.712 232.279 73.112 232.491 73.554 C 233.204 75.046 236.416 77.909 238.417 78.837 C 238.692 78.965 239.029 79.155 239.167 79.26 C 239.304 79.366 239.829 79.593 240.333 79.766 C 240.838 79.939 241.288 80.131 241.335 80.193 C 241.381 80.255 241.906 80.473 242.501 80.678 C 243.096 80.882 243.621 81.1 243.667 81.162 C 243.713 81.225 244.275 81.456 244.917 81.676 C 245.558 81.897 246.124 82.133 246.174 82.201 C 246.224 82.269 246.746 82.479 247.333 82.667 C 247.921 82.854 248.443 83.065 248.493 83.135 C 248.543 83.205 249.052 83.446 249.625 83.67 C 250.198 83.894 250.667 84.118 250.667 84.167 C 250.667 84.217 250.985 84.432 251.375 84.647 C 253.426 85.776 253.746 86.98 253.748 93.583 C 253.75 98.902 253.619 100.112 252.949 100.95 C 252.314 101.744 251.266 102.833 251.137 102.833 C 251.054 102.833 250.779 102.987 250.525 103.175 C 249.32 104.066 244.771 103.987 243.242 103.049 C 242.824 102.793 242.346 102.514 242.18 102.428 C 242.013 102.343 241.7 101.949 241.484 101.553 C 241.267 101.157 241.035 100.833 240.967 100.833 C 240.899 100.833 240.686 100.29 240.495 99.625 C 240.303 98.96 240.076 98.286 239.99 98.127 C 239.904 97.968 239.833 96.862 239.833 95.669 L 239.833 93.5 L 234.558 93.5 L 229.283 93.5 L 229.39 96.792 C 229.492 99.951 229.652 101.366 229.987 102.083 C 230.073 102.267 230.272 102.829 230.43 103.333 C 231.163 105.677 233.988 109.558 235.863 110.799 C 236.1 110.955 236.734 111.376 237.272 111.734 C 237.81 112.092 238.625 112.53 239.083 112.707 C 239.542 112.885 240.057 113.105 240.229 113.196 C 240.771 113.484 242.05 113.823 243 113.93 C 243.504 113.986 243.988 114.1 244.075 114.183 C 244.296 114.393 249.953 114.377 250.083 114.167 C 250.14 114.075 250.402 114 250.666 114 C 251.392 114 253.427 113.54 254.216 113.197 C 254.601 113.029 255.235 112.755 255.625 112.588 C 256.015 112.42 256.333 112.233 256.333 112.172 C 256.333 112.111 256.615 111.928 256.958 111.765 C 257.69 111.417 257.708 111.402 259.333 109.808 C 261.071 108.104 262.082 106.569 262.664 104.75 C 262.781 104.383 262.933 104.008 263.001 103.917 C 263.178 103.68 263.664 101.654 263.781 100.666 C 263.835 100.208 263.933 99.833 263.998 99.833 C 264.598 99.833 264.611 87.135 264.013 85.75 C 263.934 85.567 263.743 84.779 263.59 84 C 263.436 83.221 263.165 82.3 262.988 81.953 C 262.811 81.607 262.667 81.246 262.667 81.153 C 262.667 80.545 260.544 77.901 259.25 76.897 C 258.792 76.541 258.379 76.207 258.333 76.154 C 258.287 76.102 257.912 75.879 257.5 75.66 C 257.087 75.44 256.637 75.175 256.5 75.07 C 256.362 74.965 255.875 74.741 255.417 74.573 C 254.958 74.405 254.546 74.218 254.5 74.158 C 254.454 74.098 253.967 73.891 253.417 73.698 C 252.867 73.505 251.865 73.119 251.191 72.84 C 250.517 72.561 249.861 72.333 249.733 72.333 C 249.605 72.333 249.5 72.273 249.5 72.199 C 249.5 72.126 248.956 71.892 248.292 71.68 C 247.627 71.468 247.007 71.234 246.915 71.16 C 246.822 71.086 246.297 70.858 245.748 70.654 C 245.199 70.451 244.713 70.237 244.667 70.179 C 244.621 70.121 244.254 69.929 243.851 69.751 C 241.785 68.839 240.704 66.981 240.506 64.004 C 240.325 61.261 240.638 57 241.021 57 C 241.101 57 241.167 56.911 241.167 56.803 C 241.167 54.801 244.161 52.75 247.083 52.75 C 251.556 52.75 253.566 55.166 253.807 60.833 L 253.917 63.417 L 259.208 63.461 L 264.5 63.505 L 264.5 60.264 C 264.5 57.231 264.283 54.527 264.024 54.334 C 263.962 54.288 263.814 53.875 263.695 53.417 C 263.452 52.476 262.502 50.532 261.9 49.743 C 261.68 49.454 261.5 49.134 261.5 49.03 C 261.5 48.926 261.313 48.718 261.083 48.568 C 260.854 48.418 260.667 48.213 260.667 48.113 C 260.667 47.872 259.162 46.488 257.583 45.277 C 256.959 44.798 255.109 43.791 254.333 43.507 C 254.012 43.39 253.506 43.187 253.208 43.056 C 251.781 42.428 247.513 42.059 244.869 42.335 M 322.583 42.267 C 320.97 42.427 319.256 42.705 318.854 42.873 C 318.613 42.973 318.379 43.068 318.333 43.084 C 318.287 43.099 318.137 43.155 318 43.208 C 317.862 43.261 317.497 43.385 317.187 43.484 C 316.878 43.583 316.274 43.88 315.845 44.144 C 315.416 44.408 314.9 44.676 314.699 44.74 C 314.498 44.804 314.333 44.924 314.333 45.007 C 314.333 45.09 314.127 45.269 313.875 45.405 C 312.985 45.884 310.595 48.411 310.297 49.188 C 310.231 49.36 310.114 49.5 310.037 49.5 C 309.889 49.5 309.333 50.653 309.333 50.961 C 309.333 51.061 309.224 51.252 309.09 51.386 C 308.956 51.52 308.685 52.22 308.487 52.94 C 308.289 53.661 308.061 54.381 307.979 54.542 C 307.26 55.953 307.272 100.781 307.992 102.134 C 308.075 102.289 308.235 102.891 308.347 103.471 C 308.894 106.296 312.314 110.856 314.667 111.895 C 314.896 111.996 315.158 112.165 315.25 112.269 C 315.342 112.374 315.792 112.595 316.25 112.761 C 316.708 112.928 317.237 113.161 317.425 113.279 C 318.47 113.938 325.936 114.654 326.911 114.189 C 327.098 114.1 327.737 113.941 328.333 113.836 C 328.929 113.73 329.717 113.506 330.083 113.338 C 332.641 112.164 332.943 111.986 334.536 110.719 C 335.739 109.761 337.565 107.748 337.746 107.181 C 337.806 106.99 337.919 106.833 337.997 106.833 C 338.195 106.833 339.446 104.32 339.677 103.459 C 339.782 103.069 339.932 102.71 340.011 102.661 C 340.34 102.456 340.665 99.332 340.666 96.375 L 340.667 93.333 L 335.417 93.333 L 330.167 93.333 L 330.167 96.083 C 330.167 97.806 330.104 98.833 330 98.833 C 329.908 98.833 329.833 98.983 329.833 99.165 C 329.833 100.317 328.689 102.044 327.372 102.879 C 325.602 104.001 321.742 104.095 320.685 103.041 C 320.558 102.914 320.295 102.707 320.102 102.58 C 319.908 102.453 319.6 102.064 319.417 101.716 C 319.234 101.368 319.001 100.995 318.899 100.887 C 318.176 100.118 318.141 98.981 318.204 77.833 C 318.267 56.336 318.263 56.445 319.078 55.5 C 319.197 55.362 319.344 55.087 319.404 54.888 C 319.541 54.436 320.443 53.54 320.905 53.396 C 321.095 53.337 321.291 53.224 321.342 53.146 C 321.769 52.485 325.947 52.591 326.637 53.28 C 326.758 53.401 326.928 53.5 327.016 53.5 C 327.241 53.5 328.667 54.84 328.667 55.052 C 328.667 55.149 328.809 55.383 328.983 55.573 C 329.298 55.915 329.833 57.29 329.833 57.756 C 329.833 57.89 329.906 58 329.996 58 C 330.093 58 330.177 59.091 330.204 60.708 L 330.25 63.417 L 335.417 63.417 L 340.583 63.417 L 340.577 59.833 C 340.572 56.546 340.342 54.098 340.015 53.833 C 339.958 53.788 339.74 53.206 339.53 52.542 C 339.319 51.877 339.092 51.333 339.024 51.333 C 338.956 51.333 338.802 51.052 338.683 50.708 C 338.215 49.364 336.053 46.655 334.52 45.493 C 334.28 45.31 333.933 45.047 333.75 44.908 C 332.897 44.26 332.108 43.83 331.138 43.485 C 330.558 43.279 329.994 43.043 329.886 42.96 C 329.351 42.554 324.413 42.086 322.583 42.267 M 155.934 42.93 C 155.879 43.075 155.833 59.05 155.833 78.43 L 155.833 113.667 L 161.167 113.667 L 166.5 113.667 L 166.513 92.708 C 166.52 81.181 166.567 71.862 166.617 72 C 166.666 72.137 166.806 72.475 166.926 72.75 C 167.046 73.025 167.308 73.85 167.508 74.583 C 167.708 75.317 167.922 75.954 167.983 76 C 168.043 76.046 168.273 76.721 168.492 77.5 C 168.712 78.279 168.941 78.954 169.002 79 C 169.062 79.046 169.242 79.608 169.401 80.25 C 169.561 80.892 169.794 81.642 169.92 81.917 C 170.045 82.192 170.273 82.867 170.426 83.417 C 170.578 83.967 170.803 84.642 170.924 84.917 C 171.045 85.192 171.307 86.017 171.507 86.75 C 171.706 87.483 171.928 88.158 172 88.25 C 172.072 88.342 172.297 89.017 172.5 89.75 C 172.703 90.483 172.922 91.158 172.986 91.25 C 173.05 91.342 173.279 92.054 173.494 92.833 C 173.709 93.612 173.94 94.325 174.008 94.417 C 174.075 94.508 174.297 95.183 174.5 95.917 C 174.703 96.65 174.928 97.325 174.999 97.417 C 175.071 97.508 175.286 98.158 175.477 98.861 C 175.668 99.564 175.964 100.389 176.135 100.695 L 176.445 101.25 L 178.681 101.298 C 181.479 101.358 181.622 101.325 181.761 100.582 C 181.821 100.262 181.926 100 181.995 100 C 182.063 100 182.294 99.344 182.507 98.542 C 182.72 97.74 182.947 97.046 183.011 97 C 183.075 96.954 183.289 96.317 183.487 95.583 C 183.684 94.85 183.944 94.063 184.063 93.833 C 184.182 93.604 184.416 92.892 184.583 92.25 C 184.75 91.608 184.936 91.046 184.996 91 C 185.056 90.954 185.281 90.279 185.496 89.5 C 185.711 88.721 185.942 88.008 186.009 87.917 C 186.077 87.825 186.292 87.188 186.487 86.5 C 186.683 85.813 186.909 85.131 186.989 84.985 C 187.07 84.84 187.305 84.09 187.511 83.319 C 187.717 82.548 187.935 81.879 187.996 81.833 C 188.056 81.787 188.283 81.112 188.5 80.333 C 188.717 79.554 188.947 78.879 189.012 78.833 C 189.077 78.787 189.3 78.112 189.508 77.333 C 189.716 76.554 189.935 75.879 189.996 75.833 C 190.056 75.787 190.283 75.112 190.5 74.333 C 190.717 73.554 190.942 72.879 190.999 72.833 C 191.057 72.787 191.185 72.487 191.285 72.167 C 191.418 71.739 191.471 77.212 191.483 92.625 L 191.5 113.667 L 196.667 113.667 L 201.833 113.667 L 201.833 78.167 L 201.833 42.667 L 196.785 42.667 L 191.736 42.667 L 191.437 43.792 C 191.272 44.41 191.079 44.992 191.007 45.083 C 190.936 45.175 190.713 45.813 190.512 46.5 C 190.311 47.188 190.051 47.938 189.932 48.167 C 189.814 48.396 189.585 49.071 189.423 49.667 C 189.261 50.262 189.075 50.788 189.01 50.833 C 188.945 50.879 188.76 51.404 188.597 52 C 188.435 52.596 188.158 53.414 187.982 53.818 C 187.806 54.222 187.544 55.009 187.399 55.568 C 187.255 56.126 187.084 56.62 187.021 56.666 C 186.958 56.712 186.723 57.35 186.5 58.083 C 186.277 58.817 186.049 59.454 185.994 59.5 C 185.939 59.546 185.717 60.221 185.5 61 C 185.283 61.779 185.058 62.454 185.001 62.5 C 184.944 62.546 184.726 63.146 184.518 63.833 C 184.31 64.521 184.041 65.308 183.92 65.583 C 183.799 65.858 183.566 66.571 183.403 67.167 C 183.241 67.762 183.057 68.287 182.995 68.333 C 182.933 68.379 182.717 68.979 182.515 69.667 C 182.313 70.354 182.051 71.104 181.932 71.333 C 181.814 71.563 181.586 72.237 181.424 72.833 C 181.263 73.429 181.074 73.992 181.004 74.083 C 180.934 74.175 180.707 74.813 180.5 75.5 C 180.293 76.188 180.065 76.825 179.994 76.917 C 179.923 77.008 179.697 77.702 179.49 78.458 C 179.028 80.148 178.976 80.153 178.503 78.542 C 178.295 77.831 178.069 77.175 178.002 77.083 C 177.935 76.992 177.712 76.354 177.507 75.667 C 177.302 74.979 177.075 74.342 177.002 74.25 C 176.929 74.158 176.702 73.483 176.499 72.75 C 176.295 72.017 176.076 71.379 176.012 71.333 C 175.949 71.287 175.722 70.65 175.508 69.917 C 175.295 69.183 175.068 68.546 175.006 68.5 C 174.944 68.454 174.759 67.929 174.595 67.333 C 174.432 66.737 174.164 65.95 174 65.583 C 173.836 65.217 173.568 64.429 173.405 63.833 C 173.241 63.237 173.061 62.712 173.003 62.667 C 172.946 62.621 172.727 61.983 172.517 61.25 C 172.306 60.517 172.083 59.879 172.02 59.833 C 171.957 59.788 171.5 58.512 171.004 57 C 170.508 55.487 170.057 54.212 170.001 54.167 C 169.946 54.121 169.768 53.596 169.605 53 C 169.442 52.404 169.209 51.692 169.086 51.417 C 168.963 51.142 168.735 50.504 168.578 50 C 168.421 49.496 168.195 48.858 168.074 48.583 C 167.953 48.308 167.691 47.521 167.492 46.833 C 167.293 46.146 167.077 45.546 167.012 45.5 C 166.947 45.454 166.72 44.798 166.507 44.042 L 166.12 42.667 L 161.078 42.667 C 156.634 42.667 156.024 42.698 155.934 42.93 M 211.333 78.25 L 211.333 113.833 L 216.5 113.833 L 221.667 113.833 L 221.667 78.25 L 221.667 42.667 L 216.5 42.667 L 211.333 42.667 L 211.333 78.25 M 271.5 78.251 L 271.5 113.835 L 286.792 113.793 L 302.083 113.75 L 302.127 108.542 L 302.171 103.333 L 292.169 103.333 L 282.167 103.333 L 282.167 93.083 L 282.167 82.833 L 290.833 82.833 L 299.5 82.833 L 299.5 77.917 L 299.5 73 L 290.833 73 L 282.167 73 L 282.167 62.833 L 282.167 52.667 L 292.167 52.667 L 302.167 52.667 L 302.167 47.667 L 302.167 42.667 L 286.833 42.667 L 271.5 42.667 L 271.5 78.251 M 348.5 78.251 L 348.5 113.835 L 363.792 113.793 L 379.083 113.75 L 379.127 108.542 L 379.171 103.333 L 369.169 103.333 L 359.167 103.333 L 359.167 93.083 L 359.167 82.833 L 367.833 82.833 L 376.5 82.833 L 376.5 77.917 L 376.5 73 L 367.833 73 L 359.167 73 L 359.167 62.833 L 359.167 52.667 L 369.167 52.667 L 379.167 52.667 L 379.167 47.667 L 379.167 42.667 L 363.833 42.667 L 348.5 42.667 L 348.5 78.251 M 105.292 104.291 C 106.965 104.319 109.702 104.319 111.375 104.291 C 113.048 104.264 111.679 104.242 108.333 104.242 C 104.987 104.242 103.619 104.264 105.292 104.291" stroke-linecap="round" />
</g>
		<g transform="matrix(1 0 0 1 -123.61 -6.75)"  >
<path style="stroke: none; stroke-width: 1; stroke-dasharray: none; stroke-linecap: butt; stroke-dashoffset: 0; stroke-linejoin: miter; stroke-miterlimit: 4; fill: rgb(137,226,224); fill-rule: evenodd; opacity: 1;"  transform=" translate(-76.76, -79.01)" d="M 72.75 17.687 C 72.108 17.767 71.433 17.902 71.25 17.988 C 71.067 18.073 70.398 18.239 69.765 18.357 C 69.131 18.475 68.533 18.657 68.436 18.761 C 68.339 18.865 68.126 18.915 67.963 18.872 C 67.8 18.829 67.667 18.871 67.667 18.965 C 67.667 19.059 67.247 19.268 66.734 19.429 C 66.221 19.59 65.712 19.812 65.603 19.921 C 65.493 20.03 65.069 20.282 64.66 20.48 C 63.364 21.109 62.27 21.774 62.203 21.974 C 62.168 22.08 62.063 22.167 61.971 22.167 C 61.65 22.167 60.143 23.412 58.696 24.874 C 57.188 26.397 56.667 26.961 56.667 27.072 C 56.667 27.158 55.391 28.98 55.003 29.449 C 54.912 29.558 54.669 30.008 54.461 30.449 C 54.253 30.889 54.044 31.287 53.995 31.333 C 53.947 31.379 53.77 31.754 53.602 32.167 C 53.434 32.579 53.158 33.22 52.987 33.59 C 52.817 33.961 52.56 34.786 52.416 35.424 C 52.272 36.061 52.107 36.696 52.048 36.833 C 51.639 37.791 51.532 39.694 51.513 46.326 C 51.498 51.723 51.445 53.432 51.288 53.531 C 51.176 53.603 48.008 53.667 44.25 53.674 C 40.492 53.681 37.042 53.76 36.583 53.85 C 36.125 53.939 35.603 54.013 35.424 54.014 C 35.245 54.015 35.02 54.079 34.924 54.156 C 34.828 54.234 34.3 54.389 33.75 54.502 C 33.2 54.615 32.563 54.785 32.333 54.881 C 32.104 54.977 31.879 55.068 31.833 55.084 C 31.787 55.099 31.6 55.174 31.417 55.249 C 31.233 55.324 30.746 55.518 30.333 55.679 C 29.674 55.937 28.571 56.504 26.918 57.436 C 26.178 57.853 24.615 59.04 24.366 59.375 C 24.246 59.535 24.062 59.667 23.957 59.667 C 23.702 59.667 20.702 62.792 20.398 63.375 C 20.266 63.627 20.102 63.833 20.034 63.833 C 19.965 63.833 19.761 64.109 19.58 64.446 C 19.398 64.783 19.162 65.147 19.054 65.255 C 18.75 65.56 17.166 68.701 17.17 68.991 C 17.172 69.134 17.481 68.65 17.856 67.917 C 18.231 67.183 18.633 66.471 18.749 66.333 C 18.865 66.196 19.092 65.821 19.254 65.5 C 19.805 64.408 22.04 61.702 23.228 60.687 C 23.699 60.286 24.121 59.901 24.167 59.832 C 24.278 59.666 25.548 58.709 26.583 58.013 C 27.967 57.082 30.784 55.691 32.055 55.311 C 32.712 55.115 33.331 54.89 33.43 54.813 C 34.147 54.254 37.63 53.955 44.619 53.853 L 51.655 53.75 L 51.714 46.667 C 51.753 42.121 51.845 39.225 51.971 38.583 C 52.08 38.033 52.255 37.133 52.359 36.583 C 52.464 36.033 52.605 35.508 52.671 35.417 C 52.738 35.325 52.914 34.827 53.062 34.31 C 53.211 33.793 53.557 32.916 53.833 32.361 C 54.108 31.806 54.333 31.296 54.333 31.227 C 54.333 31.158 54.509 30.835 54.725 30.509 C 54.94 30.183 55.404 29.467 55.756 28.917 C 58.436 24.725 63.781 20.496 68.083 19.163 C 68.45 19.049 68.831 18.893 68.929 18.815 C 69.606 18.282 75.253 17.596 77.875 17.728 C 79.257 17.797 80 17.776 80 17.667 C 80 17.462 74.441 17.477 72.75 17.687 M 80.244 17.824 C 80.311 17.932 80.527 18.004 80.724 17.985 C 80.922 17.966 81.196 17.992 81.333 18.043 C 81.471 18.094 82.071 18.228 82.667 18.341 C 83.262 18.455 84.065 18.687 84.449 18.857 C 84.834 19.027 85.218 19.167 85.304 19.167 C 85.389 19.167 85.731 19.28 86.062 19.419 C 86.394 19.557 86.686 19.651 86.712 19.627 C 86.737 19.603 86.869 19.677 87.004 19.792 C 87.139 19.907 87.865 20.319 88.616 20.709 C 95.816 24.441 100.912 32.401 101.658 41.083 C 102.079 45.978 101.93 46.782 100.583 46.879 L 99.75 46.94 L 100.689 46.97 C 102.098 47.015 102.222 46.753 102.117 43.94 C 102.01 41.044 101.464 36.954 101.081 36.167 C 100.969 35.938 100.786 35.337 100.674 34.833 C 100.478 33.953 100.18 33.207 99.316 31.43 C 98.571 29.901 98.242 29.316 98.06 29.2 C 97.96 29.136 97.717 28.765 97.519 28.375 C 97.321 27.985 97.103 27.667 97.033 27.667 C 96.963 27.667 96.775 27.445 96.615 27.175 C 96.376 26.771 93.982 24.298 92.574 23 C 92.048 22.516 90.037 21.167 89.841 21.167 C 89.745 21.167 89.667 21.104 89.667 21.028 C 89.667 20.952 89.273 20.709 88.792 20.487 C 88.31 20.265 87.894 20.035 87.867 19.976 C 87.839 19.916 87.352 19.696 86.784 19.486 C 86.215 19.276 85.712 19.051 85.667 18.987 C 85.621 18.922 84.871 18.697 84 18.486 C 83.129 18.275 82.379 18.051 82.333 17.988 C 82.176 17.771 80.111 17.609 80.244 17.824 M 77.5 32.333 C 77.306 32.459 77.355 32.495 77.718 32.497 C 77.988 32.499 78.143 32.43 78.083 32.333 C 77.955 32.126 77.82 32.126 77.5 32.333 M 73.083 32.873 C 70.164 33.927 66.937 37.381 66.581 39.833 C 66.535 40.154 66.545 40.304 66.604 40.167 C 67.981 36.956 69.573 34.829 70.991 34.304 C 71.16 34.241 71.343 34.119 71.396 34.033 C 71.511 33.848 73.156 33.025 73.801 32.831 C 74.125 32.733 74.157 32.695 73.917 32.694 C 73.733 32.694 73.358 32.774 73.083 32.873 M 79.333 32.762 C 79.767 32.932 80.081 33.022 80.148 32.997 C 80.184 32.983 80.259 33.036 80.315 33.115 C 80.371 33.194 80.754 33.404 81.167 33.581 C 82.955 34.349 85.833 37.32 85.833 38.398 C 85.833 38.467 85.935 38.626 86.06 38.751 C 86.185 38.876 86.336 39.283 86.396 39.655 C 86.476 40.16 86.833 40.668 86.833 40.279 C 86.833 37.761 82.453 33.158 79.667 32.749 C 79.346 32.702 79.196 32.708 79.333 32.762 M 66.343 40.5 C 66.304 40.546 66.229 46.755 66.177 54.298 C 66.096 66.24 66.051 68.032 65.833 68.167 C 65.685 68.259 60.447 68.322 52.972 68.322 C 40.739 68.323 39.286 68.372 37.417 68.853 C 36.68 69.042 34.682 70.024 34.132 70.467 C 33.035 71.351 32.469 71.939 31.893 72.794 C 31.54 73.32 31.193 73.793 31.123 73.845 C 30.95 73.973 30.305 76.332 30.381 76.559 C 30.414 76.659 30.534 76.374 30.647 75.925 C 30.896 74.936 31.633 73.422 32.181 72.775 C 32.837 71.999 33.974 70.833 34.073 70.833 C 34.124 70.833 34.522 70.58 34.958 70.271 C 35.394 69.962 36.05 69.615 36.417 69.5 C 36.783 69.384 37.161 69.228 37.257 69.153 C 37.82 68.71 39.504 68.652 51.508 68.662 C 58.355 68.668 64.486 68.624 65.132 68.564 L 66.307 68.455 L 66.412 67.102 C 66.526 65.635 66.46 40.363 66.343 40.5 M 86.733 41.469 C 86.794 42.002 86.846 43.42 86.85 44.62 C 86.859 47.155 86.74 47.015 88.833 46.967 L 90.083 46.938 L 88.667 46.844 L 87.25 46.75 L 87.146 43.75 C 87.024 40.247 87.05 40.5 86.812 40.5 C 86.681 40.5 86.657 40.796 86.733 41.469 M 91.882 46.957 C 92.504 46.989 93.479 46.989 94.049 46.957 C 94.618 46.924 94.108 46.898 92.917 46.898 C 91.725 46.898 91.259 46.925 91.882 46.957 M 96.125 46.951 C 96.331 46.991 96.669 46.991 96.875 46.951 C 97.081 46.911 96.912 46.879 96.5 46.879 C 96.087 46.879 95.919 46.911 96.125 46.951 M 98.125 46.951 C 98.331 46.991 98.669 46.991 98.875 46.951 C 99.081 46.911 98.912 46.879 98.5 46.879 C 98.087 46.879 97.919 46.911 98.125 46.951 M 86.934 54.204 C 86.66 55.577 86.836 68.298 87.132 68.443 C 87.289 68.52 93.379 68.584 100.667 68.585 C 113.673 68.587 116.333 68.685 116.333 69.16 C 116.333 69.218 116.577 69.355 116.875 69.463 C 117.439 69.667 118.993 70.621 119.473 71.058 C 121.21 72.639 122.196 74.213 122.671 76.167 C 122.794 76.671 122.955 77.155 123.03 77.242 C 123.226 77.469 123.199 80.294 123 80.417 C 122.908 80.473 122.833 80.679 122.833 80.874 C 122.833 81.282 122.18 83.209 121.999 83.333 C 121.933 83.379 121.714 83.741 121.513 84.137 C 120.963 85.221 119.326 86.997 118.875 86.999 C 118.76 87 118.667 87.072 118.667 87.16 C 118.667 87.33 116.918 88.251 116.083 88.521 C 114.795 88.938 112.95 88.995 100.515 89.003 C 91.376 89.009 87.203 89.067 87.055 89.19 C 86.884 89.332 86.84 92.062 86.835 102.842 C 86.832 110.252 86.795 116.413 86.753 116.533 C 86.711 116.652 86.637 116.938 86.59 117.167 C 86.341 118.368 86.25 118.634 85.891 119.205 C 85.676 119.547 85.5 119.933 85.5 120.063 C 85.5 120.192 85.314 120.475 85.086 120.691 C 84.859 120.907 84.671 121.161 84.67 121.256 C 84.666 121.499 83.116 123 82.869 123 C 82.758 123 82.667 123.068 82.667 123.152 C 82.667 123.446 80.239 124.608 79.167 124.828 C 78.571 124.95 78.004 125.111 77.908 125.185 C 77.812 125.259 77.576 125.278 77.385 125.229 C 77.194 125.179 76.981 125.229 76.913 125.34 C 76.817 125.494 77.038 125.515 77.852 125.429 C 78.438 125.367 78.942 125.245 78.973 125.157 C 79.003 125.07 79.098 125.041 79.183 125.093 C 79.351 125.197 80.806 124.691 81.811 124.178 C 83.528 123.302 85.279 121.382 86.195 119.37 C 87.198 117.168 87.163 117.763 87.165 103.145 C 87.166 92.259 87.208 89.673 87.385 89.526 C 87.538 89.399 91.767 89.33 101.427 89.297 L 115.25 89.25 L 116.583 88.698 C 126.042 84.78 125.427 71.369 115.667 68.687 C 114.068 68.248 115.702 68.302 100.5 68.185 L 87.25 68.083 L 87.25 61.083 L 87.25 54.083 L 101.25 54.035 C 110.645 54.002 115.689 54.046 116.583 54.167 C 124.009 55.173 131.11 60.23 135.143 67.385 C 136.96 70.61 138.202 76.364 137.918 80.25 C 137.78 82.15 137.517 83.914 137.285 84.5 C 137.23 84.637 137.056 85.237 136.897 85.833 C 135.172 92.295 129.757 98.553 123.267 101.587 C 119.166 103.504 117.036 103.833 108.753 103.833 C 105.237 103.833 102.242 103.879 102.097 103.934 C 101.864 104.024 101.832 104.675 101.823 109.476 C 101.817 112.468 101.746 115.517 101.664 116.25 C 101.583 116.983 101.469 118.033 101.411 118.583 C 101.011 122.383 98.797 127.682 96.502 130.333 C 93.037 134.335 89.722 136.807 85.667 138.41 C 71.286 144.095 54.918 134.842 52.072 119.417 C 51.78 117.836 51.55 112.426 51.732 111.452 L 51.839 110.883 L 58.211 110.862 C 61.716 110.851 64.883 110.897 65.25 110.965 L 65.917 111.088 L 66.027 113.836 C 66.229 118.833 67.56 121.54 70.937 123.813 C 71.498 124.191 71.999 124.5 72.051 124.5 C 72.103 124.5 72.356 124.58 72.614 124.678 C 72.872 124.776 73.091 124.833 73.099 124.803 C 73.108 124.774 73.221 124.834 73.349 124.937 C 73.478 125.039 73.87 125.175 74.22 125.238 C 74.57 125.301 74.964 125.394 75.095 125.444 C 75.233 125.497 75.333 125.435 75.333 125.297 C 75.333 125.133 74.98 124.992 74.217 124.852 C 72.78 124.587 70.596 123.391 69.583 122.313 C 69.492 122.215 69.21 121.938 68.958 121.697 C 68.706 121.456 68.5 121.172 68.5 121.067 C 68.5 120.961 68.383 120.777 68.24 120.658 C 67.951 120.418 67.333 119.219 67.333 118.897 C 67.333 118.784 67.233 118.59 67.11 118.467 C 66.733 118.09 66.634 117.366 66.523 114.167 C 66.465 112.471 66.356 110.99 66.282 110.875 C 66.177 110.714 64.5 110.667 58.827 110.667 L 51.506 110.667 L 51.398 111.098 C 51.08 112.364 51.542 119.834 52.005 120.917 C 52.084 121.1 52.307 121.886 52.502 122.664 C 52.696 123.441 52.911 124.116 52.978 124.164 C 53.045 124.211 53.238 124.625 53.406 125.083 C 53.575 125.542 53.804 126.029 53.915 126.167 C 54.027 126.304 54.292 126.81 54.505 127.292 C 54.718 127.773 54.943 128.167 55.004 128.167 C 55.066 128.167 55.251 128.467 55.417 128.833 C 55.582 129.2 55.775 129.5 55.845 129.5 C 55.915 129.5 56.145 129.779 56.356 130.12 C 56.814 130.862 60.707 134.833 60.976 134.833 C 61.079 134.833 61.258 134.983 61.372 135.167 C 61.487 135.35 61.637 135.5 61.708 135.5 C 61.778 135.5 62.303 135.827 62.876 136.226 C 63.448 136.626 64.085 137.006 64.292 137.071 C 64.498 137.136 64.667 137.259 64.667 137.345 C 64.667 137.43 64.74 137.5 64.83 137.5 C 64.92 137.5 65.614 137.788 66.372 138.139 C 67.13 138.491 68.125 138.877 68.583 138.998 C 69.042 139.119 69.492 139.274 69.583 139.342 C 69.775 139.484 72.003 139.939 73.295 140.101 C 73.779 140.161 74.214 140.276 74.264 140.355 C 74.392 140.563 79.5 140.541 79.5 140.333 C 79.5 140.242 79.669 140.167 79.875 140.167 C 80.51 140.167 83.722 139.513 83.822 139.363 C 83.874 139.286 84.473 139.08 85.152 138.905 C 85.832 138.731 86.483 138.493 86.599 138.377 C 86.715 138.262 86.884 138.167 86.974 138.167 C 87.222 138.167 88.73 137.499 88.83 137.345 C 88.878 137.272 89.254 137.041 89.667 136.833 C 90.079 136.625 90.463 136.384 90.519 136.296 C 90.576 136.208 90.771 136.05 90.954 135.943 C 92.189 135.224 96.833 130.828 96.833 130.377 C 96.833 130.262 96.902 130.167 96.986 130.167 C 97.071 130.167 97.311 129.885 97.521 129.542 C 97.731 129.198 97.963 128.891 98.036 128.861 C 98.11 128.83 98.328 128.436 98.522 127.986 C 98.716 127.535 98.931 127.167 99.001 127.167 C 99.071 127.167 99.299 126.735 99.508 126.208 C 99.717 125.681 99.95 125.168 100.026 125.067 C 100.579 124.338 101.603 120.333 101.746 118.342 C 101.801 117.568 101.913 116.855 101.995 116.756 C 102.076 116.658 102.151 113.849 102.16 110.514 C 102.17 107.179 102.217 104.386 102.265 104.308 C 102.314 104.23 105.07 104.167 108.391 104.167 C 115.162 104.167 118.917 103.848 120.13 103.17 C 120.288 103.081 120.96 102.854 121.625 102.664 C 122.29 102.475 122.833 102.247 122.833 102.16 C 122.833 102.072 122.979 102 123.157 102 C 123.335 102 123.527 101.925 123.583 101.833 C 123.64 101.742 123.818 101.667 123.978 101.667 C 124.139 101.667 124.418 101.535 124.599 101.375 C 124.779 101.215 125.281 100.897 125.713 100.67 C 126.146 100.443 126.5 100.213 126.5 100.159 C 126.5 100.106 126.765 99.935 127.088 99.781 C 127.412 99.627 127.72 99.388 127.773 99.25 C 127.826 99.113 127.947 99 128.042 99 C 128.446 99 131.506 96.125 132.478 94.833 C 132.719 94.513 133.085 94.063 133.292 93.835 C 133.498 93.607 133.667 93.329 133.667 93.218 C 133.667 93.107 133.774 92.957 133.905 92.883 C 134.337 92.642 136.347 88.728 136.67 87.5 C 136.779 87.087 136.92 86.712 136.985 86.667 C 137.153 86.547 137.682 84.244 137.788 83.167 C 137.838 82.662 137.942 82.169 138.02 82.069 C 138.259 81.764 138.376 78.162 138.187 76.917 C 138.09 76.275 137.938 75.262 137.85 74.667 C 137.625 73.146 137.156 71.119 136.978 70.896 C 136.895 70.794 136.715 70.329 136.577 69.865 C 136.439 69.4 136.103 68.57 135.83 68.02 C 135.557 67.469 135.333 66.943 135.333 66.851 C 135.333 66.759 135.24 66.623 135.125 66.55 C 134.889 66.399 134.36 65.565 134.22 65.125 C 134.169 64.965 134.069 64.833 133.997 64.833 C 133.925 64.833 133.701 64.552 133.499 64.208 C 133.297 63.865 133.027 63.523 132.899 63.45 C 132.771 63.377 132.667 63.239 132.667 63.145 C 132.667 62.937 129.144 59.335 128.941 59.334 C 128.862 59.334 128.65 59.146 128.47 58.917 C 128.29 58.688 128.039 58.5 127.913 58.5 C 127.787 58.5 127.623 58.4 127.55 58.279 C 127.477 58.157 127.079 57.876 126.667 57.654 C 126.254 57.432 125.879 57.203 125.833 57.145 C 125.673 56.944 123.244 55.714 122.583 55.499 C 122.217 55.38 121.767 55.187 121.583 55.069 C 121.4 54.952 120.725 54.737 120.083 54.593 C 119.442 54.449 118.767 54.263 118.583 54.18 C 117.564 53.719 115.827 53.667 101.66 53.667 L 87.042 53.667 L 86.934 54.204 M 16.619 70.125 C 16.48 70.56 16.314 71.165 16.251 71.47 C 16.187 71.774 16.03 72.224 15.902 72.47 C 15.651 72.95 15.586 73.667 15.793 73.667 C 15.863 73.667 16.052 73.08 16.213 72.363 C 16.374 71.646 16.654 70.767 16.836 70.411 C 17.191 69.715 17.256 69.333 17.019 69.333 C 16.938 69.333 16.758 69.69 16.619 70.125 M 15.414 74.712 C 15.35 75.224 15.337 75.742 15.386 75.863 C 15.434 75.984 15.48 75.797 15.487 75.447 C 15.494 75.098 15.57 74.681 15.655 74.522 C 15.741 74.362 15.747 74.131 15.67 74.006 C 15.579 73.859 15.49 74.106 15.414 74.712 M 15.231 78.75 C 15.232 79.942 15.258 80.407 15.29 79.785 C 15.323 79.162 15.322 78.187 15.29 77.618 C 15.257 77.049 15.231 77.558 15.231 78.75 M 30 77.25 C 30 77.387 30.075 77.5 30.167 77.5 C 30.258 77.5 30.333 77.387 30.333 77.25 C 30.333 77.112 30.258 77 30.167 77 C 30.075 77 30 77.112 30 77.25 M 30.078 78.083 C 30.035 78.221 29.965 78.447 29.921 78.585 C 29.821 78.905 30.002 79.833 30.164 79.833 C 30.231 79.833 30.293 79.383 30.3 78.833 C 30.314 77.854 30.234 77.584 30.078 78.083 M 30 80.417 C 30 80.554 30.075 80.667 30.167 80.667 C 30.258 80.667 30.333 80.554 30.333 80.417 C 30.333 80.279 30.258 80.167 30.167 80.167 C 30.075 80.167 30 80.279 30 80.417 M 30.35 81.178 C 30.321 81.631 30.838 83.167 31.02 83.167 C 31.116 83.167 31.167 83.11 31.134 83.042 C 30.867 82.494 30.673 81.997 30.532 81.5 C 30.442 81.179 30.36 81.034 30.35 81.178 M 15.373 82.25 C 15.373 82.971 15.602 84.076 15.667 83.667 C 15.688 83.529 15.69 83.342 15.669 83.25 C 15.649 83.158 15.574 82.746 15.503 82.333 L 15.373 81.583 L 15.373 82.25 M 31.37 84.012 C 32.154 85.413 33.753 87.092 34.907 87.726 C 36.166 88.418 37.805 89.014 37.923 88.823 C 37.967 88.752 37.769 88.642 37.483 88.58 C 36.885 88.448 34.87 87.543 34.5 87.24 C 33.737 86.614 32.693 85.514 32.414 85.042 C 32.239 84.744 32.037 84.5 31.966 84.5 C 31.896 84.5 31.728 84.237 31.594 83.917 C 31.46 83.596 31.269 83.333 31.17 83.333 C 31.071 83.333 31.161 83.639 31.37 84.012 M 15.737 84.708 C 15.798 85.098 15.92 85.442 16.008 85.472 C 16.095 85.503 16.167 85.641 16.167 85.778 C 16.167 86.201 16.877 88.5 17.008 88.5 C 17.075 88.5 17.179 88.694 17.239 88.931 C 17.298 89.167 17.688 89.974 18.104 90.722 C 19.631 93.465 19.853 93.782 21.314 95.311 C 21.807 95.828 22.322 96.419 22.458 96.625 C 22.594 96.831 22.778 97 22.867 97 C 22.957 97 23.411 97.412 23.877 97.917 C 24.343 98.421 24.82 98.833 24.936 98.833 C 25.052 98.833 25.246 98.966 25.366 99.128 C 25.485 99.29 26.071 99.723 26.667 100.09 C 27.262 100.457 27.9 100.852 28.083 100.967 C 28.411 101.172 29.259 101.58 30.595 102.178 C 31.577 102.617 32.705 102.995 33.042 102.998 C 33.202 102.999 33.333 103.067 33.333 103.149 C 33.333 103.319 35.493 103.728 37.833 104.001 C 39.698 104.219 66.056 104.166 66.278 103.944 C 66.646 103.576 66.435 89.703 66.056 89.349 C 65.697 89.016 38.166 88.691 38.167 89.02 C 38.167 89.284 40.299 89.33 52.615 89.331 C 62.989 89.333 65.843 89.378 65.948 89.542 C 66.108 89.788 66.233 102.499 66.084 103.298 L 65.982 103.847 L 51.116 103.795 C 37.857 103.749 36.169 103.714 35.5 103.471 C 35.087 103.321 34.188 103.071 33.5 102.914 C 32.813 102.758 32.175 102.573 32.083 102.504 C 31.992 102.434 31.504 102.223 31 102.034 C 30.496 101.845 29.558 101.419 28.917 101.087 C 27.816 100.519 27.417 100.276 25.65 99.098 C 24.686 98.456 20.843 94.614 20.232 93.682 C 18.458 90.975 17.698 89.594 17.151 88.083 C 16.952 87.533 16.732 87.008 16.662 86.917 C 16.592 86.825 16.396 86.131 16.227 85.375 C 15.91 83.957 15.537 83.45 15.737 84.708" stroke-linecap="round" />
</g>
</g>
</g>
</svg>